<svg width="197" height="32" viewBox="0 0 197 32" fill="none" xmlns="http://www.w3.org/2000/svg">
<path fill-rule="evenodd" clip-rule="evenodd" d="M6.21932 3.50296C6.21932 4.51215 6.21706 5.39569 6.21932 6.2798C6.22046 8.97513 6.07726 11.6829 6.27649 14.3635C6.40441 16.1142 6.76552 17.9515 7.5036 19.5233C8.30903 21.2349 9.67198 22.685 10.8606 24.3474C10.0427 25.2988 9.05446 26.3697 8.16413 27.5159C7.60605 28.2347 7.12154 29.0566 8.163 29.8433C9.1105 30.5559 9.67934 30.4427 10.6251 29.3967C11.3338 28.6145 11.9971 27.7406 12.849 27.1508C16.4556 24.657 20.7799 25.579 23.812 29.3922C24.6548 30.4529 25.2242 30.5531 26.2651 29.9028C27.3722 29.2083 27.0394 28.387 26.4406 27.6308C25.4942 26.432 24.4646 25.3005 23.4351 24.1006C23.6903 23.7938 23.8601 23.504 24.1052 23.3065C27.0666 20.9259 28.3163 17.8281 28.1884 14.0534C28.0928 11.1979 28.1612 8.33441 28.1907 5.4755C28.1969 4.77422 28.3339 4.07406 28.4324 3.19392C29.4319 3.24825 30.2 3.28957 30.912 3.32806C31.0643 3.78426 31.2041 4.0118 31.2041 4.23934C31.2098 8.48667 31.2698 12.7363 31.1622 16.9819C31.1062 19.1237 30.4298 21.1421 29.2185 22.9691C27.9388 24.8936 28.0033 25.0515 29.9827 26.8073C30.2634 26.5469 30.5849 26.3075 30.8373 26.0092C33.2446 23.1401 34.3936 19.8046 34.4213 16.0808C34.4558 11.4237 34.4717 6.76657 34.4654 2.11001C34.4654 1.49306 34.2934 0.878374 34.2119 0.328779C33.7772 0.195767 33.5479 0.0706791 33.3159 0.064453C32.1737 0.0344545 31.0303 0.0259643 29.8876 0.0270964C24.4261 0.0282283 25.1529 -0.662302 25.1206 4.85855C25.1025 8.12725 25.1648 11.396 25.0788 14.6635C24.9831 18.2645 22.8934 21.1885 19.8483 22.2141C14.911 23.8731 9.74386 20.503 9.49765 15.2765C9.30917 11.2007 9.44614 7.11013 9.42463 3.02411C9.42011 2.14963 9.35162 1.27571 9.29785 0.065019C6.83967 0.0503027 4.58243 0.0186063 2.32461 0.0304924C0.145479 0.0406807 0.026051 0.158411 0.0203909 2.43716C0.0107687 6.93014 -0.0441342 11.4265 0.0798218 15.9167C0.127933 17.6917 0.369052 19.5323 0.931666 21.2055C1.64257 23.3229 2.62856 25.3962 4.70808 26.951C5.28654 26.1179 5.77953 25.4064 6.28894 24.6762C5.96462 24.1487 5.73199 23.727 5.46087 23.3314C3.88737 21.0334 3.1657 18.4886 3.17759 15.7112C3.19344 12.2801 3.14533 8.84722 3.17872 5.41777C3.1991 3.14581 3.39664 3.03091 6.21932 3.50296Z" fill="#F56B3F"/>
<path fill-rule="evenodd" clip-rule="evenodd" d="M21.1671 31.6919C20.2977 29.5275 18.9659 28.7402 16.8938 28.8868C14.941 29.0243 13.8843 29.8241 13.3958 31.6919C15.9321 31.6919 18.4175 31.6919 21.1671 31.6919Z" fill="#F56B3F"/>
<path fill-rule="evenodd" clip-rule="evenodd" d="M15.7114 3.36541C15.7114 7.18654 15.7114 10.8209 15.7125 14.4564C15.7125 14.5362 15.7351 14.6171 15.7566 14.6952C15.974 15.482 16.4772 16.108 17.2917 15.9269C17.8101 15.8097 18.3275 15.2607 18.6371 14.7739C18.8703 14.4071 18.8125 13.8321 18.8142 13.3481C18.8306 10.6703 18.8386 7.98971 18.8142 5.31192C18.8103 4.68421 18.6767 4.05877 18.5952 3.36541C17.6024 3.36541 16.7675 3.36541 15.7114 3.36541ZM21.6799 0.194064C21.7943 0.776488 21.9833 1.30571 21.9856 1.83662C22.0133 5.90566 21.9856 9.97583 22.0133 14.0449C22.0241 15.4112 21.6426 16.5964 20.7505 17.6339C18.5714 20.1685 14.4531 19.6104 13.0353 16.5212C12.673 15.7327 12.4942 14.7971 12.4823 13.9243C12.4285 9.77603 12.4579 5.62492 12.4715 1.47438C12.4738 1.15854 12.5774 0.840446 12.6934 0.194064C15.7493 0.194064 18.6382 0.194064 21.6799 0.194064Z" fill="#F56B3F"/>
<path d="M68.6791 19.04C68.6791 20.48 68.4258 21.8 67.9191 23C67.4391 24.1733 66.7324 25.1866 65.7991 26.04C64.8658 26.8666 63.7324 27.5066 62.3991 27.96C61.0658 28.4133 59.5591 28.64 57.8791 28.64C56.1991 28.64 54.6924 28.4133 53.3591 27.96C52.0258 27.5066 50.8924 26.8666 49.9591 26.04C49.0258 25.1866 48.3058 24.1733 47.7991 23C47.3191 21.8 47.0791 20.48 47.0791 19.04V3.75996C47.3724 3.70662 47.8391 3.63996 48.4791 3.55996C49.1191 3.45329 49.7324 3.39996 50.3191 3.39996C50.9324 3.39996 51.4658 3.45329 51.9191 3.55996C52.3991 3.63996 52.7991 3.79996 53.1191 4.03996C53.4391 4.27996 53.6791 4.61329 53.8391 5.03996C53.9991 5.46662 54.0791 6.02662 54.0791 6.71996V18.92C54.0791 20.2 54.4258 21.2 55.1191 21.92C55.8391 22.64 56.7591 23 57.8791 23C59.0258 23 59.9458 22.64 60.6391 21.92C61.3324 21.2 61.6791 20.2 61.6791 18.92V3.75996C61.9724 3.70662 62.4391 3.63996 63.0791 3.55996C63.7191 3.45329 64.3324 3.39996 64.9191 3.39996C65.5324 3.39996 66.0658 3.45329 66.5191 3.55996C66.9991 3.63996 67.3991 3.79996 67.7191 4.03996C68.0391 4.27996 68.2791 4.61329 68.4391 5.03996C68.5991 5.46662 68.6791 6.02662 68.6791 6.71996V19.04Z" fill="#585858"/>
<path d="M96.5216 27.16C96.1483 27.5333 95.6016 27.8133 94.8816 28C94.1883 28.2133 93.3483 28.32 92.3616 28.32C91.3749 28.32 90.4416 28.1733 89.5616 27.88C88.6816 27.5866 87.9616 26.88 87.4016 25.76L83.4416 17.68C83.0416 16.8533 82.6816 16.08 82.3616 15.36C82.0416 14.6133 81.6949 13.76 81.3216 12.8L81.0816 12.84C81.1883 14.28 81.2416 15.7466 81.2416 17.24C81.2683 18.7333 81.2816 20.2 81.2816 21.64V27.84C80.9883 27.92 80.5349 28 79.9216 28.08C79.3349 28.16 78.7483 28.2 78.1616 28.2C77.5749 28.2 77.0549 28.16 76.6016 28.08C76.1483 28 75.7749 27.84 75.4816 27.6C75.1883 27.36 74.9616 27.04 74.8016 26.64C74.6416 26.2133 74.5616 25.6666 74.5616 25V4.99996C74.9349 4.46662 75.5083 4.06662 76.2816 3.79996C77.0549 3.53329 77.8816 3.39996 78.7616 3.39996C79.7483 3.39996 80.6816 3.55996 81.5616 3.87996C82.4683 4.17329 83.1883 4.86662 83.7216 5.95996L87.7216 14.04C88.1216 14.8666 88.4816 15.6533 88.8016 16.4C89.1216 17.12 89.4683 17.96 89.8416 18.92L90.0416 18.88C89.9349 17.44 89.8683 16 89.8416 14.56C89.8149 13.12 89.8016 11.68 89.8016 10.24V3.75996C90.0949 3.67996 90.5349 3.59996 91.1216 3.51996C91.7349 3.43996 92.3349 3.39996 92.9216 3.39996C94.0949 3.39996 94.9883 3.61329 95.6016 4.03996C96.2149 4.43996 96.5216 5.29329 96.5216 6.59996V27.16Z" fill="#585858"/>
<path d="M109.51 27.84C109.217 27.92 108.75 28 108.11 28.08C107.497 28.16 106.883 28.2 106.27 28.2C105.657 28.2 105.11 28.1466 104.63 28.04C104.177 27.96 103.79 27.8 103.47 27.56C103.15 27.32 102.91 26.9866 102.75 26.56C102.59 26.1333 102.51 25.5733 102.51 24.88V3.75996C102.803 3.70662 103.27 3.63996 103.91 3.55996C104.55 3.45329 105.163 3.39996 105.75 3.39996C106.363 3.39996 106.897 3.45329 107.35 3.55996C107.83 3.63996 108.23 3.79996 108.55 4.03996C108.87 4.27996 109.11 4.61329 109.27 5.03996C109.43 5.46662 109.51 6.02662 109.51 6.71996V27.84Z" fill="#585858"/>
<path d="M120.658 4.47996C121.111 4.21329 121.791 3.95996 122.698 3.71995C123.631 3.47995 124.564 3.35995 125.498 3.35995C126.831 3.35995 128.004 3.55996 129.018 3.95996C130.058 4.33329 130.724 4.93329 131.018 5.75995C131.498 7.14662 132.018 8.75996 132.578 10.6C133.138 12.44 133.698 14.3466 134.258 16.32C134.818 18.2666 135.364 20.2 135.898 22.12C136.431 24.0133 136.898 25.6933 137.298 27.16C136.978 27.5333 136.498 27.8266 135.858 28.04C135.218 28.28 134.458 28.4 133.578 28.4C132.938 28.4 132.391 28.3466 131.938 28.24C131.511 28.1333 131.151 27.9733 130.858 27.76C130.591 27.5466 130.364 27.2666 130.178 26.92C130.018 26.5733 129.871 26.1733 129.738 25.72L129.018 22.96H121.778C121.564 23.76 121.351 24.5866 121.138 25.44C120.924 26.2933 120.711 27.12 120.498 27.92C120.124 28.0533 119.724 28.16 119.298 28.24C118.898 28.3466 118.404 28.4 117.818 28.4C116.458 28.4 115.444 28.1733 114.778 27.72C114.138 27.24 113.818 26.5866 113.818 25.76C113.818 25.3866 113.871 25.0133 113.978 24.64C114.084 24.2666 114.204 23.8266 114.338 23.32C114.524 22.6 114.778 21.7066 115.098 20.64C115.444 19.5733 115.818 18.4266 116.218 17.2C116.618 15.9466 117.044 14.6666 117.498 13.36C117.951 12.0533 118.378 10.8266 118.778 9.67996C119.178 8.50662 119.538 7.46662 119.858 6.55996C120.204 5.65329 120.471 4.95996 120.658 4.47996ZM125.458 9.63996C125.084 10.76 124.658 12.0133 124.178 13.4C123.724 14.76 123.311 16.1466 122.938 17.56H127.898C127.524 16.12 127.138 14.72 126.738 13.36C126.364 11.9733 126.018 10.7333 125.698 9.63996H125.458Z" fill="#585858"/>
<path d="M148.336 22.8C148.629 22.8533 148.989 22.9066 149.416 22.96C149.842 22.9866 150.242 23 150.616 23C151.522 23 152.349 22.8666 153.096 22.6C153.869 22.3333 154.522 21.92 155.056 21.36C155.616 20.8 156.042 20.08 156.336 19.2C156.656 18.2933 156.816 17.2133 156.816 15.96C156.816 13.56 156.256 11.76 155.136 10.56C154.016 9.33329 152.522 8.71996 150.656 8.71996C150.282 8.71996 149.896 8.73329 149.496 8.75996C149.122 8.78662 148.736 8.82662 148.336 8.87996V22.8ZM150.576 28.64C150.122 28.64 149.602 28.6266 149.016 28.6C148.429 28.5733 147.816 28.52 147.176 28.44C146.562 28.36 145.936 28.2533 145.296 28.12C144.682 28.0133 144.109 27.8533 143.576 27.64C142.109 27.08 141.376 26.1066 141.376 24.72V6.03996C141.376 5.47996 141.522 5.05329 141.816 4.75996C142.136 4.43996 142.562 4.18662 143.096 3.99996C144.242 3.62662 145.456 3.38662 146.736 3.27996C148.016 3.14662 149.162 3.07996 150.176 3.07996C152.256 3.07996 154.136 3.33329 155.816 3.83996C157.522 4.34662 158.976 5.13329 160.176 6.19996C161.402 7.23996 162.349 8.55996 163.016 10.16C163.682 11.76 164.016 13.6533 164.016 15.84C164.016 17.9733 163.696 19.84 163.056 21.44C162.416 23.0133 161.496 24.3466 160.296 25.44C159.122 26.5066 157.709 27.3066 156.056 27.84C154.402 28.3733 152.576 28.64 150.576 28.64Z" fill="#585858"/>
<path d="M185.459 22.04C185.112 22.3333 184.659 22.5733 184.099 22.76C183.566 22.92 182.939 23 182.219 23C181.259 23 180.459 22.88 179.819 22.64C179.206 22.4 178.806 21.9866 178.619 21.4C177.872 19.0533 177.259 17.16 176.779 15.72C176.299 14.2533 175.926 12.9733 175.659 11.88H175.459C175.379 13.4533 175.312 14.8933 175.259 16.2C175.232 17.48 175.206 18.7333 175.179 19.96C175.179 21.1866 175.152 22.4266 175.099 23.68C175.072 24.9333 175.019 26.32 174.939 27.84C174.592 27.9733 174.139 28.08 173.579 28.16C173.019 28.2666 172.459 28.32 171.899 28.32C170.726 28.32 169.806 28.1333 169.139 27.76C168.499 27.3866 168.179 26.7066 168.179 25.72L169.339 5.31996C169.552 4.97329 170.019 4.59996 170.739 4.19996C171.459 3.79996 172.472 3.59996 173.779 3.59996C175.192 3.59996 176.299 3.82662 177.099 4.27995C177.899 4.70662 178.486 5.41329 178.859 6.39996C179.099 7.03996 179.352 7.77329 179.619 8.59996C179.912 9.42662 180.192 10.28 180.459 11.16C180.752 12.04 181.032 12.92 181.299 13.8C181.566 14.6533 181.806 15.4266 182.019 16.12H182.219C182.859 13.88 183.499 11.72 184.139 9.63996C184.779 7.53329 185.366 5.77329 185.899 4.35996C186.299 4.14662 186.806 3.97329 187.419 3.83996C188.059 3.67996 188.766 3.59996 189.539 3.59996C190.846 3.59996 191.912 3.79996 192.739 4.19996C193.566 4.57329 194.046 5.11996 194.179 5.83996C194.286 6.37329 194.392 7.19996 194.499 8.31996C194.632 9.41329 194.766 10.6533 194.899 12.04C195.032 13.4266 195.166 14.8933 195.299 16.44C195.432 17.9866 195.552 19.48 195.659 20.92C195.792 22.3333 195.899 23.64 195.979 24.84C196.059 26.0133 196.112 26.92 196.139 27.56C195.686 27.8266 195.206 28.0133 194.699 28.12C194.219 28.2533 193.592 28.32 192.819 28.32C191.806 28.32 190.952 28.1466 190.259 27.8C189.566 27.4533 189.192 26.7733 189.139 25.76C188.979 22.8533 188.872 20.24 188.819 17.92C188.792 15.6 188.739 13.6533 188.659 12.08H188.459C188.192 13.12 187.806 14.4266 187.299 16C186.792 17.5733 186.179 19.5866 185.459 22.04Z" fill="#585858"/>
</svg>
